<svg width="224" height="200" viewBox="0 0 224 200" fill="none" xmlns="http://www.w3.org/2000/svg">
<path d="M58.34 69.66C56.8389 68.1589 55.9956 66.1229 55.9956 64C55.9956 61.8771 56.8389 59.8411 58.34 58.34C59.8411 56.8389 61.8771 55.9956 64 55.9956C66.1229 55.9956 68.1589 56.8389 69.66 58.34L104 92.69V8C104 5.87827 104.843 3.84344 106.343 2.34315C107.843 0.842854 109.878 0 112 0C114.122 0 116.157 0.842854 117.657 2.34315C119.157 3.84344 120 5.87827 120 8V92.69L154.34 58.34C155.841 56.8389 157.877 55.9956 160 55.9956C162.123 55.9956 164.159 56.8389 165.66 58.34C167.161 59.8411 168.004 61.8771 168.004 64C168.004 66.1229 167.161 68.1589 165.66 69.66L117.66 117.66C116.917 118.404 116.035 118.994 115.064 119.396C114.092 119.799 113.051 120.006 112 120.006C110.949 120.006 109.908 119.799 108.936 119.396C107.965 118.994 107.083 118.404 106.34 117.66L58.34 69.66ZM224 120V184C224 188.243 222.314 192.313 219.314 195.314C216.313 198.314 212.243 200 208 200H16C11.7565 200 7.68687 198.314 4.68629 195.314C1.68571 192.313 0 188.243 0 184V120C0 115.757 1.68571 111.687 4.68629 108.686C7.68687 105.686 11.7565 104 16 104H68.4C68.9254 104 69.4458 104.103 69.9314 104.303C70.417 104.504 70.8583 104.799 71.23 105.17L95 129C97.2297 131.237 99.8791 133.013 102.796 134.224C105.714 135.435 108.841 136.059 112 136.059C115.159 136.059 118.286 135.435 121.204 134.224C124.121 133.013 126.77 131.237 129 129L152.8 105.2C153.539 104.446 154.545 104.015 155.6 104H208C212.243 104 216.313 105.686 219.314 108.686C222.314 111.687 224 115.757 224 120ZM184 152C184 149.627 183.296 147.307 181.978 145.333C180.659 143.36 178.785 141.822 176.592 140.913C174.399 140.005 171.987 139.768 169.659 140.231C167.331 140.694 165.193 141.836 163.515 143.515C161.836 145.193 160.694 147.331 160.231 149.659C159.768 151.987 160.005 154.399 160.913 156.592C161.822 158.785 163.36 160.659 165.333 161.978C167.307 163.296 169.627 164 172 164C175.183 164 178.235 162.736 180.485 160.485C182.736 158.235 184 155.183 184 152Z" fill="#333333"/>
</svg>
